<svg width="10" height="9" viewBox="0 0 10 9" fill="none" xmlns="http://www.w3.org/2000/svg">
<path d="M4.09912 0.0111491C1.83875 0.0111491 0 1.76155 0 3.91332C0 6.06509 1.83875 7.81549 4.09912 7.81549C4.79011 7.81549 5.46939 7.65941 6.04327 7.35838C6.08924 7.41104 6.1402 7.45956 6.19552 7.50332L7.3667 8.61823C7.47484 8.73407 7.60672 8.82764 7.75422 8.89321C7.90173 8.95877 8.06176 8.99495 8.22448 8.99951C8.38721 9.00407 8.5492 8.97692 8.7005 8.91972C8.8518 8.86253 8.98923 8.7765 9.10435 8.66692C9.21946 8.55734 9.30983 8.42651 9.36991 8.28248C9.42999 8.13844 9.45851 7.98424 9.45372 7.82933C9.44893 7.67443 9.41093 7.52209 9.34205 7.38167C9.27318 7.24125 9.17488 7.11571 9.05319 7.01276L7.88202 5.89785C7.82497 5.84353 7.76217 5.79495 7.69463 5.75292C8.01085 5.20661 8.20995 4.57112 8.20995 3.90217C8.20995 1.7504 6.3712 0 4.11083 0L4.09912 0.0111491ZM4.09912 1.12606C5.72705 1.12606 7.02706 2.3636 7.02706 3.91332C7.02706 4.64916 6.74598 5.32925 6.25408 5.83096C6.24237 5.84211 6.23066 5.85326 6.21895 5.86441C6.16363 5.90817 6.11266 5.95668 6.06669 6.00935C5.55138 6.45531 4.84867 6.71174 4.08741 6.71174C2.45947 6.71174 1.15946 5.47419 1.15946 3.92447C1.15946 2.37475 2.45947 1.1372 4.08741 1.1372L4.09912 1.12606Z" fill="#595959"/>
</svg>
